<?xml version="1.0" encoding="UTF-8"?>
<svg id="Layer_1" xmlns="http://www.w3.org/2000/svg" version="1.1" viewBox="0 0 88 92">
  <!-- Generator: Adobe Illustrator 29.2.0, SVG Export Plug-In . SVG Version: 2.1.0 Build 108)  -->
  <defs>
    <style>
      .st0 {
        stroke: #1f5396;
        stroke-miterlimit: 10;
        stroke-width: 5.2px;
      }

      .st0, .st1 {
        fill: #fff;
      }

      .st2, .st3, .st4 {
        fill: #1f5396;
      }

      .st3 {
        letter-spacing: .4em;
      }

      .st3, .st4 {
        font-family: Arial-BoldMT, Arial;
        font-size: 24px;
        font-weight: 700;
        isolation: isolate;
      }

      .st4 {
        letter-spacing: .4em;
      }
    </style>
  </defs>
  <circle class="st1" cx="66.2" cy="28.8" r="16.5"/>
  <path class="st2" d="M46.7,58.9h38.6v5.5h-38.6s0-5.5,0-5.5ZM46.7,86.4h38.6v-5.5h-38.6s0,5.5,0,5.5ZM85.2,28.6c0,10.6-8.7,19.3-19.3,19.3s-19.3-8.7-19.3-19.3,8.7-19.3,19.3-19.3,19.3,8.7,19.3,19.3ZM79.7,28.6c0-7.6-6.2-13.8-13.8-13.8s-13.8,6.2-13.8,13.8,6.2,13.8,13.8,13.8,13.8-6.2,13.8-13.8Z"/>
  <circle class="st0" cx="21.9" cy="61.6" r="16.7"/>
  <text class="st3" transform="translate(58.7 36.4)"><tspan x="0" y="0">1</tspan></text>
  <text class="st4" transform="translate(14 69.5)"><tspan x="0" y="0">A</tspan></text>
</svg>