<svg xmlns="http://www.w3.org/2000/svg" viewBox="0 0 394.61 413.99"><defs><style>.cls-1{fill:#b6c7e5;}.cls-2{fill:#2055aa;}.cls-3{fill:#fff;}</style></defs><g id="icones_bleu" data-name="icones bleu"><ellipse class="cls-1" cx="332.45" cy="239.71" rx="26.18" ry="26.5" transform="translate(24.43 510.09) rotate(-77.07)"/><rect class="cls-2" x="87.32" y="142.97" width="294.52" height="156.38" rx="5.28" transform="translate(55.44 -46.88) rotate(12.93)"/><rect class="cls-2" x="22.22" y="117.82" width="68" height="32.97" transform="translate(31.48 -9.17) rotate(12.93)"/><rect class="cls-2" x="12.54" y="158.63" width="68" height="35.65" transform="translate(40.67 -5.94) rotate(12.93)"/><ellipse class="cls-3" cx="332.45" cy="239.71" rx="26.18" ry="26.5" transform="translate(24.43 510.09) rotate(-77.07)"/><path class="cls-2" d="M336.72,267.83a29.07,29.07,0,0,1-10.62-.45,28.39,28.39,0,1,1,34.34-21.25h0a28,28,0,0,1-12.7,17.69A28.54,28.54,0,0,1,336.72,267.83ZM328.84,216a23.92,23.92,0,0,0-1.75,47.09,24.26,24.26,0,0,0,18.32-3,23.62,23.62,0,0,0,10.72-14.92A24.35,24.35,0,0,0,328.84,216Z"/><rect class="cls-2" x="2.83" y="202.25" width="68" height="33" transform="translate(49.88 -2.69) rotate(12.93)"/></g></svg>