<svg xmlns="http://www.w3.org/2000/svg" viewBox="0 0 394.61 413.99"><defs><style>.cls-1{fill:#2055aa;}.cls-2{fill:#fff;}</style></defs><g id="icones_bleu" data-name="icones bleu"><path class="cls-1" d="M109.58,318.1H33.94A34,34,0,0,1,0,284.16V129.39A34,34,0,0,1,33.94,95.45H360.66a34,34,0,0,1,33.95,33.94V284.16a34,34,0,0,1-33.95,33.94H196.52"/><polyline class="cls-1" points="89.48 394.62 89.48 316.94 200.8 316.94"/><path class="cls-2" d="M106.76,208.25c0-12.3,8.31-20.94,19.95-20.94s19.6,8.64,19.6,20.94c0,12-7.64,20.94-19.94,20.94C114.74,229.19,106.76,220.22,106.76,208.25Z"/><path class="cls-2" d="M183.87,208.25c0-12.3,8.31-20.94,19.94-20.94s19.61,8.64,19.61,20.94c0,12-7.64,20.94-19.94,20.94C191.85,229.19,183.87,220.22,183.87,208.25Z"/><path class="cls-2" d="M261,208.25c0-12.3,8.31-20.94,19.95-20.94s19.61,8.64,19.61,20.94c0,12-7.65,20.94-19.94,20.94C269,229.19,261,220.22,261,208.25Z"/></g></svg>