<svg xmlns="http://www.w3.org/2000/svg" viewBox="0 0 394.61 413.99"><defs><style>.cls-1{fill:#2055aa;}.cls-2,.cls-3{fill:#fff;}.cls-3{stroke:#2055aa;stroke-miterlimit:10;stroke-width:2px;}</style></defs><g id="icones_bleu" data-name="icones bleu"><path class="cls-1" d="M109.58,347.27H33.94A34,34,0,0,1,0,313.32V158.56a34,34,0,0,1,33.94-33.95H360.66a34,34,0,0,1,33.95,34V313.32a34,34,0,0,1-33.95,33.95H196.52"/><path class="cls-2" d="M103.3,258q13.86-.13,24.82-10.23,5.65,2.65,8.57,4.08t7.82,4.08a68.31,68.31,0,0,1,7.54,4.6q2.64,2,6.13,5a24.47,24.47,0,0,1,5.12,5.87,31.72,31.72,0,0,1,2.78,6.52,26.9,26.9,0,0,1,1.2,7.89l.19,19.36-127.4,1.25-.19-19.36A36.54,36.54,0,0,1,42.76,275a38.12,38.12,0,0,1,5.53-9.21,39.87,39.87,0,0,1,8.54-7.36q5.4-3.58,9.6-5.81t10.91-5.2Q88.68,258.14,103.3,258Zm-.93-85.65q-13.77.14-23.41,11t-9.49,26.29q.15,15.39,10,26.1t23.62,10.58q13.77-.13,23.5-11.05T136.17,209q-.15-15.37-10.09-26.09T102.37,172.35Z"/><path class="cls-3" d="M333.35,163.4q26.22,22.56,26.81,61.74l-.79.91q-9.53,2.26-11.8.31-1.45-33.48-23.79-52.7-21.3-18.33-55.22-15.3-2.3-2-1.46-11.72l.79-.91Q306.71,140.48,333.35,163.4ZM315,183l1.25,1.07q18.93,16.3,18.35,44.75l-.79.92c-6.36,1-10.16,1-11.43-.13l-.38-.33q-.52-22.22-16.14-35.65-14.25-12.27-37.26-9.47l-.43-.37q-.7-2.12-1-11.39l.79-.91Q296.09,166.75,315,183Z"/></g></svg>