<svg id="Calque_1_-_copie" data-name="Calque 1 - copie" xmlns="http://www.w3.org/2000/svg" viewBox="0 0 535 561.2"><defs><style>.cls-1{fill:#b6c7e5;}.cls-2{fill:#369;}.cls-3{fill:#0c0;}.cls-4{fill:#900;}</style></defs><path class="cls-1" d="M505.1,80,305.69,4.05c-23.59-9-50.38,3.82-59.81,28.59l-148,388.77c-9.43,24.76,2.06,52.15,25.65,61.13l199.41,75.92c23.59,9,50.38-3.82,59.81-28.58l148-388.77C540.18,116.34,528.69,89,505.1,80ZM234.59,490.6c-15.76-6-23.4-24.22-17.1-40.76s24.12-25.06,39.87-19.06,23.4,24.22,17.1,40.76S250.35,496.6,234.59,490.6Zm146.85-40.35a13.08,13.08,0,0,1-16.87,7.44L160.3,379.92a13.08,13.08,0,0,1-7.64-16.79l119.94-315a13.08,13.08,0,0,1,16.87-7.44l204.27,77.77a13.08,13.08,0,0,1,7.64,16.79Z"/><path class="cls-1" d="M46,227H147.78a4,4,0,0,0,4-4V204.1a4,4,0,0,0-4-4H46V184.53a8.09,8.09,0,0,0-13.81-5.72l-29,29a8.09,8.09,0,0,0,0,11.44l29,29A8.09,8.09,0,0,0,46,242.55V227Z"/><path class="cls-2" d="M282.57,109.31,275.85,118l-6.53-2.48L293.61,85.1l8.07,3.07-1.93,38.92L293,124.51l.6-11Zm11.73-1,.53-9.57c.13-2.36.47-4.94.72-7.14l-.1,0c-1.28,1.81-2.72,4-4.12,5.85l-5.92,7.51Z"/><path class="cls-2" d="M322.35,134.82a19.81,19.81,0,0,1-7.58-1.42c-7.81-3-11-9.9-8-17.66,2.86-7.5,10.23-11.4,19-8.06a16.87,16.87,0,0,1,5.67,3.51l-2.93,4.3a12,12,0,0,0-4.41-2.79c-4.83-1.84-9.06.61-10.75,5.2-1.95,5.14.27,9.34,4.59,11a13.32,13.32,0,0,0,5.35.92Z"/><path class="cls-2" d="M345,143.43a19.45,19.45,0,0,1-7.58-1.42c-7.81-3-11-9.89-8-17.66,2.85-7.5,10.22-11.4,19-8a16.91,16.91,0,0,1,5.67,3.51l-2.93,4.29a12.06,12.06,0,0,0-4.41-2.79c-4.83-1.84-9.06.61-10.75,5.2-2,5.14.27,9.34,4.58,11a13.33,13.33,0,0,0,5.36.92Z"/><path class="cls-2" d="M357.45,136.77c-1.57,4.58,1.23,7.88,5.24,9.41a20.38,20.38,0,0,0,7.37,1.51l-.74,4.72a25.27,25.27,0,0,1-9.32-1.79c-8.12-3.09-11-9.89-8.09-17.55,2.64-6.94,9.34-11.86,17.36-8.81s8.25,10.79,6.16,16.29a16.74,16.74,0,0,1-1.23,2.6Zm12.68-.24c.93-2.29,1.35-6.48-2.86-8.09-3.91-1.49-6.9,1.43-8.14,3.91Z"/><path class="cls-2" d="M381.77,139.2c1.25-3.29,2.17-6,3-8.4l5.56,2.11-1.17,4,.11,0a10.42,10.42,0,0,1,10.26-1.15c5.76,2.19,8.66,8.94,5.69,16.76-3.45,9-10.82,11.24-16.52,9.07a8.82,8.82,0,0,1-5.77-6l-.1,0-4.93,13-6.32-2.41Zm4,8.63a7.48,7.48,0,0,0-.46,1.82,6.11,6.11,0,0,0,3.87,6.53c4,1.53,7.65-.91,9.52-5.84,1.69-4.42.9-8.84-3.16-10.39a6.32,6.32,0,0,0-7.44,2.53,6.2,6.2,0,0,0-.86,1.49Z"/><path class="cls-2" d="M425,137.94l-2.72,7.14,6,2.29-1.8,4.73-6-2.29-4.21,11.05c-1.16,3-.94,4.94,1.47,5.86a10,10,0,0,0,2.59.63l-1.74,4.87a14.7,14.7,0,0,1-4.81-1.13A7.8,7.8,0,0,1,409.1,167c-.79-1.94-.55-4.44.71-7.73l4.48-11.77-3.6-1.37,1.8-4.73,3.6,1.37,2.15-5.65Z"/><path class="cls-2" d="M431.77,165.06c-1.56,4.59,1.24,7.89,5.25,9.42a20.33,20.33,0,0,0,7.36,1.51l-.73,4.72a25.28,25.28,0,0,1-9.33-1.79c-8.12-3.09-11-9.89-8.08-17.55,2.64-6.94,9.34-11.86,17.35-8.81s8.25,10.79,6.16,16.29a17.18,17.18,0,0,1-1.22,2.59Zm12.68-.23c.94-2.29,1.36-6.48-2.86-8.09-3.9-1.49-6.9,1.43-8.13,3.91Z"/><path class="cls-2" d="M456.19,167.24c1.29-3.39,2.16-5.82,2.87-8.14l5.5,2.09-1.62,4.86.21.08a8,8,0,0,1,8.87-2.75,7.62,7.62,0,0,1,1.43.72l-2.27,6a9,9,0,0,0-1.77-.91,6,6,0,0,0-7.47,2.62,11.34,11.34,0,0,0-.95,1.88l-4.93,13-6.33-2.41Z"/><path class="cls-2" d="M237.28,250.36a64.28,64.28,0,0,1,9.83,2.92c5,1.9,8.06,4,9.63,6.85a9.34,9.34,0,0,1,.34,8.07,9.89,9.89,0,0,1-9.57,6.3l-.06.15c2.11,1.87,2.68,4.85,2.28,8.52-.56,4.73-1.16,9.09-.95,10.7l-6.53-2.48a52.35,52.35,0,0,1,.8-9.05c.75-4.9-.35-7-3.91-8.44L236,272.69l-5.42,14.24-6.28-2.39Zm.44,17.7,3.75,1.43c4.26,1.63,7.8.38,9.11-3.06,1.45-3.8-.56-6.57-4.67-8.13a19,19,0,0,0-4-1.18Z"/><path class="cls-2" d="M262,286.6c-1.57,4.58,1.23,7.88,5.24,9.41a20.34,20.34,0,0,0,7.37,1.51l-.74,4.72a25.27,25.27,0,0,1-9.32-1.79c-8.12-3.09-11-9.89-8.09-17.55,2.64-6.94,9.34-11.86,17.36-8.81S282,284.88,280,290.38a16.74,16.74,0,0,1-1.23,2.6Zm12.68-.24c.93-2.29,1.35-6.48-2.86-8.09-3.91-1.48-6.9,1.43-8.14,3.91Z"/><path class="cls-2" d="M280.65,306l7.73-20.3L285,284.42l1.8-4.73,3.39,1.29.41-1.08c1.23-3.24,3.34-6.14,6.28-7.38a10.27,10.27,0,0,1,7.45.07,13,13,0,0,1,3.82,2.17l-2.32,4.7a7.85,7.85,0,0,0-2.49-1.48c-3.14-1.19-5.22,1-6.39,4.1l-.49,1.29,5.5,2.09-1.8,4.73-5.45-2.08L287,308.41Z"/><path class="cls-2" d="M321.59,313c-1.13,3-2,5.48-2.65,7.58l-5.55-2.12,1.14-3.92-.11,0a9.68,9.68,0,0,1-9.68,1.32c-4.57-1.74-7.7-6.05-4.58-14.22l5.59-14.7,6.32,2.41-5.18,13.62c-1.59,4.16-1.27,7.34,2.07,8.61a5.69,5.69,0,0,0,6.12-1.55,6.15,6.15,0,0,0,1.11-1.82l5.75-15.11,6.32,2.41Z"/><path class="cls-2" d="M327.47,317.19a15.13,15.13,0,0,0,5.74,4.24c2.78,1.06,4.44.4,5.07-1.25s0-3-2.72-5.21c-4.24-3.56-5.28-7-4.11-9.92,1.68-4.42,6.64-6.48,12.45-4.26a15.62,15.62,0,0,1,6.06,4l-2.93,4a12.15,12.15,0,0,0-4.75-3.45c-2.26-.86-3.9-.25-4.49,1.29s.28,2.81,3,5.16c3.9,3.36,5.13,6.48,3.77,10.2-1.72,4.52-6.52,6.46-13.15,3.94a17.38,17.38,0,0,1-6.94-4.65Z"/><path class="cls-2" d="M355.57,322.23c-1.57,4.59,1.23,7.89,5.24,9.42a20.34,20.34,0,0,0,7.37,1.51l-.74,4.72a25.23,25.23,0,0,1-9.32-1.79c-8.12-3.09-11-9.89-8.09-17.55,2.64-6.94,9.34-11.86,17.36-8.81s8.25,10.79,6.15,16.29a16.24,16.24,0,0,1-1.22,2.59Zm12.68-.23c.93-2.29,1.35-6.48-2.87-8.09-3.9-1.49-6.9,1.43-8.13,3.9Z"/><path class="cls-2" d="M380,324.41c1.3-3.39,2.16-5.82,2.87-8.14l5.5,2.09-1.61,4.86.2.08a8,8,0,0,1,8.87-2.75,7.62,7.62,0,0,1,1.43.72l-2.27,6a9,9,0,0,0-1.77-.91,6,6,0,0,0-7.47,2.62,11.34,11.34,0,0,0-1,1.88l-4.93,12.95-6.32-2.41Z"/><path class="cls-3" d="M414.63,196.65l.88,3.39q-16.22,1.76-39.27,10.55t-37.85,18.94l-5.48.33a81.06,81.06,0,0,0-9.49,1.08,75.16,75.16,0,0,0,.24-9l-.13-3.91a51.83,51.83,0,0,0-1.72-13.11,16.31,16.31,0,0,0-4.68-7.53q9-2.46,14.2.07,4.5,2.16,5.14,14.86l.19,4.25A163.47,163.47,0,0,1,374.82,202Q396.53,196.49,414.63,196.65Z"/><path class="cls-4" d="M296.85,338.67q13.18,5,16.07,20.52a27,27,0,0,1-1.62,13.56q-5.25,13.78-22.05,16.92a28.3,28.3,0,0,1-10.35-1.35l-1.84-.7q-12.3-4.68-15.52-20.11a27.72,27.72,0,0,1,1.7-13.77q5.08-13.38,21-16.59A25.44,25.44,0,0,1,296.85,338.67Zm-25.19,12.84-3.85,10.11L302.9,375l3.85-10.1Z"/><rect class="cls-1" x="323.96" y="122.26" width="5" height="269.17" transform="translate(-30.44 469.37) rotate(-68.97)"/></svg>