<?xml version="1.0" encoding="UTF-8"?>
<svg id="Layer_1" xmlns="http://www.w3.org/2000/svg" version="1.1" viewBox="0 0 181 256">
  <!-- Generator: Adobe Illustrator 29.2.0, SVG Export Plug-In . SVG Version: 2.1.0 Build 108)  -->
  <defs>
    <style>
      .st0 {
        opacity: .7;
      }

      .st0, .st1, .st2, .st3, .st4 {
        isolation: isolate;
      }

      .st5 {
        fill: none;
      }

      .st5, .st6, .st7 {
        stroke: #1f5396;
        stroke-miterlimit: 10;
      }

      .st5, .st7 {
        opacity: .3;
        stroke-width: 5px;
      }

      .st6 {
        stroke-width: 5.2px;
      }

      .st6, .st8 {
        fill: #fff;
      }

      .st9 {
        letter-spacing: .6em;
      }

      .st10 {
        letter-spacing: .6em;
      }

      .st11, .st2, .st3, .st4, .st7 {
        fill: #1f5396;
      }

      .st2 {
        letter-spacing: .4em;
      }

      .st2, .st4 {
        font-family: Arial-BoldMT, Arial;
        font-size: 24px;
        font-weight: 700;
      }

      .st3 {
        opacity: .3;
      }
    </style>
  </defs>
  <rect class="st3" y="4.9" width="191" height="139.5" rx="12" ry="12"/>
  <circle class="st8" cx="65.3" cy="29.3" r="16.5"/>
  <circle class="st8" cx="111.9" cy="29.1" r="16.5"/>
  <circle class="st8" cx="158.7" cy="29.3" r="16.5"/>
  <path class="st11" d="M45.8,59.4h38.6v5.5h-38.6s0-5.5,0-5.5ZM45.8,86.9h38.6v-5.5h-38.6s0,5.5,0,5.5ZM95.4,64.9h33.1v-5.5h-33.1v5.5ZM95.4,86.9h33.1v-5.5h-33.1v5.5ZM139.4,64.9h38.6v-5.5h-38.6v5.5ZM139.4,86.9h38.6v-5.5h-38.6v5.5ZM45.8,109h38.6v-5.5h-38.6s0,5.5,0,5.5ZM95.4,109h33.1v-5.5h-33.1v5.5ZM139.4,109h38.6v-5.5h-38.6v5.5ZM45.8,131h38.6v-5.5h-38.6s0,5.5,0,5.5ZM95.4,131h33.1v-5.5h-33.1v5.5ZM139.4,131h38.6v-5.5h-38.6v5.5ZM131.2,29.1c0,10.6-8.7,19.3-19.3,19.3s-19.3-8.7-19.3-19.3,8.7-19.3,19.3-19.3,19.3,8.7,19.3,19.3ZM125.7,29.1c0-7.6-6.2-13.8-13.8-13.8s-13.8,6.2-13.8,13.8,6.2,13.8,13.8,13.8,13.8-6.2,13.8-13.8ZM84.3,29.1c0,10.6-8.7,19.3-19.3,19.3s-19.3-8.7-19.3-19.3,8.7-19.3,19.3-19.3,19.3,8.7,19.3,19.3ZM78.8,29.1c0-7.6-6.2-13.8-13.8-13.8s-13.8,6.2-13.8,13.8,6.2,13.8,13.8,13.8,13.8-6.2,13.8-13.8ZM139.4,29.1c0-10.6,8.7-19.3,19.3-19.3s19.3,8.7,19.3,19.3-8.7,19.3-19.3,19.3-19.3-8.7-19.3-19.3ZM144.9,29.1c0,7.6,6.2,13.8,13.8,13.8s13.8-6.2,13.8-13.8-6.2-13.8-13.8-13.8-13.8,6.2-13.8,13.8Z"/>
  <circle class="st6" cx="21" cy="62.1" r="16.7"/>
  <circle class="st6" cx="20.7" cy="106.4" r="16.7"/>
  <g class="st0">
    <g class="st1">
      <text class="st4" transform="translate(58.5 36.9)"><tspan class="st9" x="0" y="0">1 </tspan><tspan class="st10" x="46.4" y="0">2</tspan></text>
    </g>
    <g class="st1">
      <text class="st2" transform="translate(135.8 36.9)"><tspan x="0" y="0" xml:space="preserve"> 3</tspan></text>
    </g>
  </g>
  <g class="st0">
    <g class="st1">
      <text class="st2" transform="translate(13.1 70)"><tspan x="0" y="0">A</tspan></text>
    </g>
  </g>
  <g class="st0">
    <g class="st1">
      <text class="st2" transform="translate(13.2 115)"><tspan x="0" y="0">B</tspan></text>
    </g>
  </g>
  <line class="st5" x1="139.4" y1="160.2" x2="139.4" y2="202"/>
  <line class="st5" x1="141.9" y1="204.6" x2="53.7" y2="204.6"/>
  <polygon class="st7" points="34.2 203.4 51.4 192.9 50.9 215.1 34.2 203.4"/>
</svg>