<svg id="Calque_1_-_copie" data-name="Calque 1 - copie" xmlns="http://www.w3.org/2000/svg" viewBox="0 0 535 561.2"><defs><style>.cls-1{fill:#b6c6e4;}.cls-2{opacity:0.26;}.cls-3{fill:#454444;}.cls-4,.cls-5{fill:#fff;}.cls-5{stroke:#fff;stroke-miterlimit:10;stroke-width:8px;}.cls-6{fill:#b6c7e5;}</style></defs><path class="cls-1" d="M55.84,199.57H177.63a4.84,4.84,0,0,0,4.84-4.84V172.14a4.84,4.84,0,0,0-4.84-4.84H55.84V148.72a9.68,9.68,0,0,0-16.53-6.84L4.6,176.59a9.68,9.68,0,0,0,0,13.69L39.31,225a9.68,9.68,0,0,0,16.53-6.85V199.57Z"/><ellipse class="cls-1" cx="217.96" cy="403.58" rx="35.86" ry="35.42" transform="translate(-237.65 456.53) rotate(-68.26)"/><rect class="cls-1" x="95.68" y="193.81" width="398.48" height="211.58" rx="5.28" transform="translate(708.66 225.1) rotate(124.34)"/><rect class="cls-1" x="445.86" y="94.15" width="92" height="43.9" transform="translate(865.2 -224.53) rotate(124.34)"/><rect class="cls-1" x="398.3" y="59.86" width="92" height="47.48" transform="translate(763.98 -236.09) rotate(124.34)"/><g class="cls-2"><ellipse class="cls-3" cx="217.96" cy="403.58" rx="35.86" ry="35.42" transform="translate(-237.65 456.53) rotate(-68.26)"/></g><rect class="cls-1" x="350.59" y="29.03" width="92" height="43.95" transform="translate(662.43 -247.68) rotate(124.34)"/><ellipse class="cls-4" cx="219.05" cy="399.21" rx="35.86" ry="35.42" transform="translate(-232.91 454.8) rotate(-68.26)"/><line class="cls-5" x1="361.48" y1="151.09" x2="260.08" y2="293.7"/><line class="cls-5" x1="385.08" y1="167.13" x2="283.68" y2="309.74"/><line class="cls-5" x1="407.33" y1="182.97" x2="305.93" y2="325.58"/><path class="cls-6" d="M253.35,507.3c-14.7,21.51-57.59,17.8-95.79-8.3S100.3,434.29,115,412.78"/></svg>