<svg id="Calque_1_-_copie" data-name="Calque 1 - copie" xmlns="http://www.w3.org/2000/svg" viewBox="0 0 535 561.2"><defs><style>.cls-1{fill:#b6c7e5;}.cls-2{fill:#205599;}</style></defs><path class="cls-1" d="M505.1,79.84,305.69,3.91c-23.59-9-50.38,3.82-59.81,28.59l-148,388.77C88.42,446,99.91,473.41,123.5,482.4l199.41,75.92c23.59,9,50.38-3.82,59.81-28.58L530.75,141C540.18,116.2,528.69,88.82,505.1,79.84ZM234.59,490.45c-15.76-6-23.4-24.21-17.1-40.75s24.12-25.06,39.87-19.06,23.4,24.21,17.1,40.76S250.35,496.45,234.59,490.45Zm146.85-40.34a13.08,13.08,0,0,1-16.87,7.44L160.3,379.77A13.07,13.07,0,0,1,152.66,363L272.6,48a13.08,13.08,0,0,1,16.87-7.44l204.27,77.77a13.08,13.08,0,0,1,7.64,16.79Z"/><path class="cls-2" d="M255.09,219.26A34.2,34.2,0,0,0,267.68,228c5.75,2.19,9.7,1,11.08-2.65,1.32-3.45-.56-6.43-6.31-11.35-8-6.72-12.06-14.1-9-22.16,3.6-9.46,14.25-13.69,27.33-8.71a36.42,36.42,0,0,1,13.08,8.18l-6.65,9.05a28.1,28.1,0,0,0-10.59-7c-5.43-2.07-9-.6-10.1,2.27-1.34,3.54,1.19,6.29,7.31,11.73,8.41,7.34,11.07,14.2,8.1,22-3.54,9.29-13.7,14.46-28.92,8.67-6.33-2.41-11.95-6.43-14.42-9.35Z"/><path class="cls-2" d="M351.19,246.33c2.29-6.75,5.11-14.9,8.18-23l-.25-.1c-4.42,6.42-9.73,13.44-14.34,19.12l-15,19.06L320,257.72,322.27,234c.66-7.18,1.77-15.8,3.21-23.53l-.16-.07c-3.18,7.36-6.68,15.82-9.72,22.57l-9,20.68L295,249.23l24.64-54.08,16.69,6.36-1.61,20.57c-.72,7.07-1.62,14.64-2.86,21.6l.25.1c4-5.82,8.68-12.42,12.84-17.9l12.93-16.17,16.37,6.23-18.07,56.59-12.25-4.67Z"/><path class="cls-2" d="M373.19,264.22A34.37,34.37,0,0,0,385.77,273c5.76,2.19,9.71,1,11.09-2.65,1.32-3.46-.57-6.43-6.32-11.35-8-6.72-12.05-14.1-9-22.16,3.6-9.46,14.25-13.69,27.33-8.71A36.42,36.42,0,0,1,422,236.28l-6.65,9.05a28.28,28.28,0,0,0-10.6-7.05c-5.42-2.06-9-.6-10.09,2.28-1.35,3.54,1.18,6.29,7.31,11.73,8.4,7.34,11.07,14.19,8.09,22-3.53,9.29-13.7,14.46-28.91,8.67-6.33-2.41-12-6.44-14.42-9.36Z"/><path class="cls-1" d="M46,226.88H147.78a4,4,0,0,0,4-4V204a4,4,0,0,0-4-4H46V184.39a8.09,8.09,0,0,0-13.81-5.72l-29,29a8.09,8.09,0,0,0,0,11.44l29,29A8.09,8.09,0,0,0,46,242.41V226.88Z"/></svg>