<svg id="Calque_1_-_copie" data-name="Calque 1 - copie" xmlns="http://www.w3.org/2000/svg" viewBox="0 0 535 561.2"><defs><style>.cls-1{fill:#b6c6e4;}.cls-2{fill:#b6c7e5;}</style></defs><path class="cls-1" d="M156.62,471.3l95,40.58a4.09,4.09,0,0,0,5.39-2.16l7.53-17.62a4.11,4.11,0,0,0-2.17-5.39l-95-40.59,6.19-14.49A8.21,8.21,0,0,0,163,420.78L124.3,436.3A8.21,8.21,0,0,0,119.74,447l15.52,38.65a8.21,8.21,0,0,0,15.17.16l6.19-14.49Z"/><path class="cls-2" d="M114,0,534.75,178.37,422.86,455.66,2.13,277.32Zm94.32,202.52L118.12,20.2,18.93,266Zm110.16,54.39c-79.82,27.26-68.43,29.87-105.34-44.66L23.74,275.73,408.65,438.89Zm10.12-3.41,90.13,182L518,189.69Z"/></svg>