<svg id="Calque_1_-_copie" data-name="Calque 1 - copie" xmlns="http://www.w3.org/2000/svg" viewBox="0 0 535 561.2"><defs><style>.cls-1{fill:#b6c6e4;}.cls-2{fill:#fff;}</style></defs><path class="cls-1" d="M530.57,329.67l-83-174c-9.81-20.59-36.42-29.42-59.4-19.73L27.49,288.08c-23,9.69-33.66,34.25-23.84,54.84l83,174C96.43,537.5,123,546.34,146,536.65L506.73,384.51C529.7,374.82,540.38,350.25,530.57,329.67Z"/><path class="cls-2" d="M186.71,406.41Q201.7,400,209,384q7.33.31,11.15.54c2.54.15,6,.45,10.34.88A81.18,81.18,0,0,1,240.76,387q3.75.93,9,2.68a29.11,29.11,0,0,1,8.22,4.05,37.28,37.28,0,0,1,6,5.82,32.29,32.29,0,0,1,4.89,8l9,20.92L140.08,487.7l-9-20.92a43,43,0,0,1-2.37-14.43,44.84,44.84,0,0,1,1.83-12.49A46.43,46.43,0,0,1,136.49,428q4.23-6.35,7.77-10.66t9.48-10.6Q170.92,413.2,186.71,406.41Zm-39.89-92.53q-14.88,6.39-20.39,22.61t1.63,32.83q7.16,16.64,22.7,23.79t30.44.76q14.88-6.4,20.49-22.65t-1.53-32.88q-7.16-16.63-22.8-23.74T146.82,313.88Z"/><path class="cls-1" d="M247.05,9.44l3.4-1.19q51.62-18.15,103.3,9.29l.79,2.23q-8.13,18.14-13.29,20l-1.05.37q-41.46-19.7-84-4.73Q217.34,49,196.21,92l-1.17.41q-4.74-.71-22.09-8.84l-.78-2.23Q195.44,27.58,247.05,9.44Zm19.67,48.84q32.85-11.55,64.36,6.5l.83,2.35q-2.15,6.68-11.74,20.6l-1.17.41Q298.9,79,281.88,83.39l-12.44,4.37q-13.49,4.76-26,26.93l-1.17.41q-21.56-7.32-22.05-8.72l-.82-2.35Q232.36,70.35,266.72,58.28Z"/></svg>