<svg id="Calque_1_-_copie" data-name="Calque 1 - copie" xmlns="http://www.w3.org/2000/svg" viewBox="0 0 535 561.2"><defs><style>.cls-1{fill:#b6c7e5;}.cls-2{fill:#205599;}</style></defs><path class="cls-1" d="M505.1,79.93,305.69,4c-23.59-9-50.38,3.83-59.81,28.59l-148,388.77c-9.43,24.77,2.06,52.15,25.65,61.13l199.41,75.93c23.59,9,50.38-3.82,59.81-28.59l148-388.77C540.18,116.29,528.69,88.91,505.1,79.93ZM234.59,490.55c-15.76-6-23.4-24.21-17.1-40.75s24.12-25.06,39.87-19.06,23.4,24.21,17.1,40.75S250.35,496.55,234.59,490.55ZM381.44,450.2a13.09,13.09,0,0,1-16.87,7.45L160.3,379.87a13.08,13.08,0,0,1-7.64-16.78l119.94-315a13.07,13.07,0,0,1,16.87-7.45l204.27,77.78a13.07,13.07,0,0,1,7.64,16.78Z"/><path class="cls-1" d="M46,227H147.78a4,4,0,0,0,4-4V204.06a4,4,0,0,0-4-4.05H46V184.49a8.09,8.09,0,0,0-13.81-5.72l-29,29a8.09,8.09,0,0,0,0,11.44l29,29A8.09,8.09,0,0,0,46,242.5V227Z"/><path class="cls-2" d="M267.41,245.32c-2.61.26-8-.45-14.44-2.9-18.3-7-23.38-21.93-17.64-37,6.87-18,23.57-23.2,39.59-17.1,6.2,2.36,10.43,5.41,12.13,7.32L281,204.2a27.63,27.63,0,0,0-9.3-5.79c-9.5-3.62-19.06-.69-23.54,11.08-4,10.6-.3,19.66,10.38,23.73a32.23,32.23,0,0,0,10.63,2.07Z"/><path class="cls-2" d="M331.06,240.34c-6.61,17.35-21.13,23.86-36.6,18-15.7-6-20.37-21.33-14.63-36.4,6-15.86,20.68-23.85,36.3-17.91C332.38,210.19,336.62,225.74,331.06,240.34Zm-38.5-13.85c-3.95,10.36-1.86,19.51,6.15,22.56s15.64-2.85,19.56-13.13c3.62-9.5,2.17-19.4-6.07-22.54C304.11,210.3,296.47,216.2,292.56,226.49Z"/><path class="cls-2" d="M348.5,218.13a112,112,0,0,1,16.59,5.06c10.05,3.82,15.88,8.11,19.52,13.9,3.94,6.17,4.91,14,1.35,23.34-3.85,10.13-10.2,15.71-16.95,18.09-7.34,2.51-16.65,1.48-27-2.47a111.24,111.24,0,0,1-13.28-5.95Zm-4.43,47.75a24,24,0,0,0,4.07,1.82c10.81,4.2,20.15.92,25-11.72,4.26-11,0-19.22-10.25-23.13a26,26,0,0,0-5.6-1.59Z"/><path class="cls-2" d="M423.26,280.75l-19.47-7.42L399,285.89l21.74,8.28L417,304l-33.76-12.86,20.15-52.91,32.66,12.44-3.74,9.81-20.65-7.86-4.18,11L427,271Z"/></svg>